<?xml version="1.0" encoding="utf-8"?>
<!-- Generator: Adobe Illustrator 26.1.0, SVG Export Plug-In . SVG Version: 6.00 Build 0)  -->
<svg version="1.1" xmlns="http://www.w3.org/2000/svg" xmlns:xlink="http://www.w3.org/1999/xlink" x="0px" y="0px"
	 viewBox="0 0 48 48" style="enable-background:new 0 0 48 48;" xml:space="preserve">
<style type="text/css">
	.st0{display:none;}
	.st1{display:inline;}
	.st2{fill:#FFFFFF;}
	.st3{fill:#2D2D2D;}
</style>
<g id="Layer_1" class="st0">
	<g class="st1">
		<g>
			<g>
				<path class="st2" d="M34.3,23.9c0,5.7-4.6,10.4-10.3,10.6c-5.7-0.2-10.3-4.8-10.3-10.6c0-5.7,4.6-10.4,10.3-10.6
					C29.7,13.5,34.3,18.2,34.3,23.9z"/>
			</g>
		</g>
		<g>
			<g>
				<path class="st3" d="M47.9,23.9h-0.4c-3.3-0.6-7.1-7.5-7.1-7.5s0,0,0,0c-2.8-6-8.9-10.2-16-10.2c-0.1,0-0.2,0-0.3,0
					c-0.1,0-0.2,0-0.3,0c-7.1,0-13.2,4.2-16,10.2c0,0,0,0,0,0c-0.2,0.3-3.9,6.9-7.1,7.5H0.1c0.1,0,0.2,0,0.3,0c-0.1,0-0.2,0-0.3,0
					h0.4c3.2,0.6,6.9,7.1,7.1,7.5c0,0,0,0,0,0c2.8,6,8.9,10.2,16,10.2c0.1,0,0.2,0,0.3,0c0.1,0,0.2,0,0.3,0c7.1,0,13.2-4.2,16-10.2
					c0,0,0,0,0,0s3.8-6.9,7.1-7.5L47.9,23.9c-0.1,0-0.2,0-0.3,0C47.6,23.9,47.7,23.9,47.9,23.9z M13.7,23.9
					c0-5.7,4.6-10.4,10.3-10.6c5.7,0.2,10.3,4.9,10.3,10.6c0,5.7-4.6,10.4-10.3,10.6C18.3,34.3,13.7,29.6,13.7,23.9z"/>
			</g>
		</g>
		<g>
			<path class="st3" d="M17.4,13.9h4.1c2.6,0,4.4,0.1,5.4,0.4c0.9,0.2,1.6,0.6,2.1,1.2s0.8,1.2,0.9,1.9c0.1,0.7,0.2,2,0.2,4v7.4
				c0,1.9-0.1,3.2-0.3,3.8s-0.5,1.1-0.9,1.5c-0.4,0.4-1,0.6-1.6,0.8c-0.7,0.1-1.6,0.2-2.9,0.2h-6.9V13.9z M22.9,17.5v13.9
				c0.8,0,1.3-0.2,1.5-0.5s0.3-1.2,0.3-2.6v-8.2c0-1,0-1.6-0.1-1.8c-0.1-0.3-0.2-0.5-0.4-0.6C23.9,17.6,23.5,17.5,22.9,17.5z"/>
		</g>
	</g>
</g>
<g id="Layer_2">
	<g>
		<path class="st3" d="M23.2,17.6h-8.1c0-2.9,0.3-4.9,0.7-6.3c0.5-1.3,1.4-2.5,3-3.5s3.5-1.5,5.8-1.5c1.7,0,3.2,0.3,4.5,0.8
			c1.3,0.5,2.3,1.3,3,2.2c0.8,1,1.3,2,1.7,3.1c0.3,1.1,0.5,2.9,0.5,5.2v4c0,1.8-0.2,3.3-0.5,4.4c-0.3,1.1-1.1,2.1-2.2,2.9
			c-1.1,0.8-2.5,1.2-4,1.2c-2,0-3.4-0.8-4.4-2.3v3.5h-7.6v-9H23c0,1.2,0.5,1.9,1.3,1.9c0.7,0,1.1-0.3,1.3-0.8c0.2-0.5,0.3-1.9,0.3-4
			v-5.4c0-1.2-0.1-2-0.3-2.4s-0.5-0.6-1-0.6c-0.6,0-1,0.3-1.2,0.8c-0.2,0.5-0.3,1.8-0.3,3.7V17.6z M23.2,33.1v6.5h-7.6v-6.5H23.2z"
			/>
	</g>
</g>
</svg>
