<?xml version="1.0" encoding="utf-8"?>
<!-- Generator: Adobe Illustrator 26.1.0, SVG Export Plug-In . SVG Version: 6.00 Build 0)  -->
<svg version="1.1" id="Layer_1" xmlns="http://www.w3.org/2000/svg" xmlns:xlink="http://www.w3.org/1999/xlink" x="0px" y="0px"
	 viewBox="0 0 48 48" style="enable-background:new 0 0 48 48;" xml:space="preserve">
<style type="text/css">
	.st0{fill:#FFFFFF;}
	.st1{fill:#2D2D2D;}
</style>
<g>
	<g>
		<path class="st0" d="M34.3,23.9c0,5.7-4.6,10.4-10.3,10.6c-5.7-0.2-10.3-4.8-10.3-10.6c0-5.7,4.6-10.4,10.3-10.6
			C29.7,13.5,34.3,18.2,34.3,23.9z"/>
	</g>
</g>
<g>
	<g>
		<path class="st1" d="M47.9,23.9h-0.4c-3.3-0.6-7.1-7.5-7.1-7.5l0,0c-2.8-6-8.9-10.2-16-10.2c-0.1,0-0.2,0-0.3,0
			c-0.1,0-0.2,0-0.3,0c-7.1,0-13.2,4.2-16,10.2l0,0c-0.2,0.3-3.9,6.9-7.1,7.5H0.1c0.1,0,0.2,0,0.3,0c-0.1,0-0.2,0-0.3,0h0.4
			c3.2,0.6,6.9,7.1,7.1,7.5l0,0c2.8,6,8.9,10.2,16,10.2c0.1,0,0.2,0,0.3,0c0.1,0,0.2,0,0.3,0c7.1,0,13.2-4.2,16-10.2l0,0
			c0,0,3.8-6.9,7.1-7.5L47.9,23.9c-0.1,0-0.2,0-0.3,0C47.6,23.9,47.7,23.9,47.9,23.9z M13.7,23.9c0-5.7,4.6-10.4,10.3-10.6
			c5.7,0.2,10.3,4.9,10.3,10.6S29.7,34.3,24,34.5C18.3,34.3,13.7,29.6,13.7,23.9z"/>
	</g>
</g>
<g id="Layer_2_00000117678991577833955700000000872670503415474351_">
	<g>
		<path class="st1" d="M23,20.5h-5.6c0-2,0.2-3.4,0.5-4.3c0.3-0.9,1-1.7,2.1-2.4s2.4-1,4-1c1.2,0,2.2,0.2,3.1,0.6
			c0.9,0.3,1.6,0.9,2.1,1.5c0.6,0.7,0.9,1.4,1.2,2.1c0.2,0.8,0.3,2,0.3,3.6v2.8c0,1.2-0.1,2.3-0.3,3c-0.2,0.8-0.8,1.4-1.5,2
			C28,28.8,27,29.1,26,29.1c-1.4,0-2.3-0.6-3-1.6v2.4h-5.2v-6.2h5.1c0,0.8,0.3,1.3,0.9,1.3c0.5,0,0.8-0.2,0.9-0.6s0.2-1.3,0.2-2.8
			V18c0-0.8-0.1-1.4-0.2-1.7c-0.1-0.3-0.3-0.4-0.7-0.4c-0.4,0-0.7,0.2-0.8,0.6c-0.1,0.3-0.2,1.2-0.2,2.5L23,20.5L23,20.5z M23,31.1
			v4.5h-5.2v-4.5H23z"/>
	</g>
</g>
</svg>
