<?xml version="1.0" encoding="utf-8"?>
<!-- Generator: Adobe Illustrator 26.1.0, SVG Export Plug-In . SVG Version: 6.00 Build 0)  -->
<svg version="1.1" id="Layer_1" xmlns="http://www.w3.org/2000/svg" xmlns:xlink="http://www.w3.org/1999/xlink" x="0px" y="0px"
	 viewBox="0 0 48 48" style="enable-background:new 0 0 48 48;" xml:space="preserve">
<style type="text/css">
	.st0{fill:#FFFFFF;}
	.st1{fill:#2D2D2D;}
	.st2{font-family:'Impact';}
	.st3{font-size:30.7301px;}
</style>
<g>
	<g>
		<path class="st0" d="M34.3,23.9c0,5.7-4.6,10.4-10.3,10.6c-5.7-0.2-10.3-4.8-10.3-10.6c0-5.7,4.6-10.4,10.3-10.6
			C29.7,13.5,34.3,18.2,34.3,23.9z"/>
	</g>
</g>
<g>
	<g>
		<path class="st1" d="M47.9,23.9h-0.4c-3.3-0.6-7.1-7.5-7.1-7.5l0,0c-2.8-6-8.9-10.2-16-10.2c-0.1,0-0.2,0-0.3,0
			c-0.1,0-0.2,0-0.3,0c-7.1,0-13.2,4.2-16,10.2l0,0c-0.2,0.3-3.9,6.9-7.1,7.5H0.1c0.1,0,0.2,0,0.3,0c-0.1,0-0.2,0-0.3,0h0.4
			c3.2,0.6,6.9,7.1,7.1,7.5l0,0c2.8,6,8.9,10.2,16,10.2c0.1,0,0.2,0,0.3,0c0.1,0,0.2,0,0.3,0c7.1,0,13.2-4.2,16-10.2l0,0
			c0,0,3.8-6.9,7.1-7.5L47.9,23.9c-0.1,0-0.2,0-0.3,0C47.6,23.9,47.7,23.9,47.9,23.9z M13.7,23.9c0-5.7,4.6-10.4,10.3-10.6
			c5.7,0.2,10.3,4.9,10.3,10.6S29.7,34.3,24,34.5C18.3,34.3,13.7,29.6,13.7,23.9z"/>
	</g>
</g>
<text transform="matrix(1 0 0 1 19.7913 37.6768)" class="st1 st2 st3">i</text>
</svg>
