<?xml version="1.0" encoding="utf-8"?>
<!-- Generator: Adobe Illustrator 26.1.0, SVG Export Plug-In . SVG Version: 6.00 Build 0)  -->
<svg version="1.1" id="bg" xmlns="http://www.w3.org/2000/svg" xmlns:xlink="http://www.w3.org/1999/xlink" x="0px" y="0px"
	 viewBox="0 0 779 355.9" style="enable-background:new 0 0 779 355.9;" xml:space="preserve">
<style type="text/css">
	.st0{fill:#2D2D2D;}
	.st1{enable-background:new    ;}
</style>
<g>
	<rect x="186" class="st0" width="57.6" height="172.8"/>
	<rect x="250.8" class="st0" width="57.6" height="352.8"/>
	<rect x="315.6" class="st0" width="57.6" height="352.8"/>
	<rect x="380.4" class="st0" width="57.6" height="172.8"/>
	<rect x="186" y="180" class="st0" width="57.6" height="172.8"/>
	<rect x="380.4" y="180" class="st0" width="57.6" height="172.8"/>
</g>
<g class="st1">
	<path class="st0" d="M177.9,0.2l-20,172.6h-56c-5.1-26.5-9.7-56.7-13.6-90.5c-1.8,14.5-6,44.7-12.5,90.5H20.1L0,0.2h43.6l4.7,60.2
		l4.6,58.2c1.7-30.1,5.8-69.6,12.4-118.4h46.6c0.6,5,2.2,24,4.9,56.9l5,65.7c2.6-41.8,6.7-82.6,12.5-122.6H177.9z"/>
</g>
<g class="st1">
	<path class="st0" d="M74.6,180.2h44.8c14.1,0,24.9,1.1,32.1,3.3c7.3,2.2,13.2,6.7,17.6,13.4c4.5,6.7,6.7,17.5,6.7,32.4
		c0,10.1-1.6,17.1-4.7,21.1c-3.2,4-9.4,7-18.7,9.2c10.4,2.3,17.4,6.2,21.1,11.7c3.7,5.4,5.5,13.8,5.5,25v16c0,11.7-1.3,20.3-4,25.9
		c-2.7,5.6-6.9,9.5-12.7,11.5c-5.8,2.1-17.8,3.1-35.8,3.1H74.6V180.2z M119.4,209.8v38.4c1.9-0.1,3.4-0.1,4.5-0.1
		c4.4,0,7.2-1.1,8.4-3.3c1.2-2.2,1.8-8.4,1.8-18.6c0-5.4-0.5-9.2-1.5-11.4c-1-2.2-2.3-3.5-3.9-4.1
		C127.2,210.2,124,209.8,119.4,209.8z M119.4,275v48.3c6.3-0.2,10.4-1.2,12.1-3c1.7-1.8,2.6-6.1,2.6-13.1v-16.1
		c0-7.4-0.8-11.9-2.3-13.4C130.2,276.1,126.1,275.2,119.4,275z"/>
</g>
<g class="st1">
	<path class="st0" d="M532.7,0.2l25.7,172.6h-45.9l-2.4-31H494l-2.7,31h-46.4L467.8,0.2H532.7z M508.9,111.2
		c-2.3-19.5-4.5-43.7-6.8-72.5c-4.6,33-7.4,57.2-8.6,72.5H508.9z"/>
	<path class="st0" d="M704.4,0.2v172.6h-39.2l-0.1-116.5l-15.6,116.5h-27.8L605.2,59l-0.1,113.8h-39.2V0.2H624
		c1.7,10.4,3.5,22.6,5.3,36.7l6.4,43.9L646,0.2H704.4z"/>
</g>
<g class="st1">
	<path class="st0" d="M544.9,180.2v172.6h-39.3l-23.3-78.4v78.4h-37.5V180.2h37.5l25.2,77.7v-77.7H544.9z"/>
</g>
<g class="st1">
	<path class="st0" d="M656.2,243.8h-44.9v-15.7c0-9.9-0.4-16.1-1.3-18.5c-0.9-2.5-2.9-3.7-6.1-3.7c-2.8,0-4.7,1.1-5.6,3.2
		c-1,2.1-1.5,7.6-1.5,16.4v82.8c0,7.7,0.5,12.8,1.5,15.3c1,2.5,3,3.7,6,3.7c3.3,0,5.5-1.4,6.7-4.2c1.2-2.8,1.8-8.2,1.8-16.2v-20.5
		h-9.1v-26.2h52.5v92.6H628l-4.2-12.4c-3.1,5.3-6.9,9.3-11.6,12c-4.7,2.7-10.2,4-16.5,4c-7.5,0-14.6-1.8-21.2-5.5
		c-6.6-3.7-11.6-8.2-15-13.6c-3.4-5.4-5.5-11.1-6.4-17c-0.9-5.9-1.3-14.8-1.3-26.7v-51.3c0-16.5,0.9-28.5,2.7-35.9
		c1.8-7.5,6.9-14.3,15.3-20.5c8.4-6.2,19.3-9.3,32.7-9.3c13.1,0,24.1,2.7,32.7,8.1c8.7,5.4,14.3,11.8,16.9,19.2
		c2.6,7.4,3.9,18.2,3.9,32.3V243.8z"/>
	<path class="st0" d="M764.8,232.5h-41.7v-12.8c0-6-0.5-9.8-1.6-11.4c-1.1-1.6-2.8-2.5-5.3-2.5c-2.7,0-4.7,1.1-6.1,3.3
		c-1.4,2.2-2.1,5.5-2.1,10c0,5.8,0.8,10.1,2.3,13c1.5,2.9,5.7,6.4,12.7,10.6c20,11.9,32.6,21.6,37.7,29.2c5.2,7.6,7.8,19.9,7.8,36.8
		c0,12.3-1.4,21.4-4.3,27.2c-2.9,5.8-8.4,10.7-16.7,14.7c-8.2,3.9-17.8,5.9-28.8,5.9c-12,0-22.3-2.3-30.7-6.8
		c-8.5-4.5-14.1-10.3-16.7-17.4c-2.6-7-3.9-17-3.9-30V291H709v21c0,6.5,0.6,10.6,1.8,12.5c1.2,1.8,3.2,2.8,6.2,2.8s5.2-1.2,6.7-3.5
		c1.5-2.3,2.2-5.8,2.2-10.4c0-10.2-1.4-16.8-4.2-19.9c-2.8-3.1-9.8-8.3-21-15.7c-11.2-7.4-18.5-12.8-22.2-16.1
		c-3.6-3.3-6.6-8-9-13.9c-2.4-5.9-3.6-13.4-3.6-22.6c0-13.2,1.7-22.9,5.1-29c3.4-6.1,8.8-10.9,16.4-14.3c7.5-3.4,16.6-5.2,27.3-5.2
		c11.7,0,21.6,1.9,29.8,5.6c8.2,3.8,13.6,8.5,16.3,14.2c2.7,5.7,4,15.4,4,29.2V232.5z"/>
</g>
</svg>
